<svg width="1440" height="1100" viewBox="0 0 1440 1100" fill="none" xmlns="http://www.w3.org/2000/svg">
<g clip-path="url(#clip0_642_21346)">
<rect width="1440" height="1100" fill="url(#paint0_linear_642_21346)"/>
<g opacity="0.1">
<path d="M-186.636 598.982C-76.6856 779.154 246.006 784.052 447.769 693.792C680.269 589.754 695.991 384.455 895.875 358.29C1078.26 334.357 1158.38 493.206 1288.84 467.229C1408.72 443.35 1539.6 269.677 1614.41 -341.913" stroke="white" stroke-width="2.40658" stroke-miterlimit="10"/>
<path d="M1591.41 -357.626C1517.03 245.409 1387.7 422.932 1268.15 451.853C1179.5 473.176 1113.47 407.786 1022.19 373.844C976.207 355.935 926.503 349.726 877.537 355.774C717.096 375.475 672.435 504.944 537.601 610.564C503.283 637.603 465.907 660.513 426.24 678.823C224.982 772.519 -87.676 782.537 -198.773 611.154" stroke="white" stroke-width="2.40658" stroke-miterlimit="10"/>
<path d="M1568.42 -373.258C1494.44 221.19 1366.75 402.485 1247.75 436.316C1160.28 461.178 1093.99 400.377 1003.94 369.637C957.684 353.207 908.291 347.556 859.527 353.115C700.837 371.232 652.225 491.485 516.058 595.481C481.49 621.991 444.269 644.85 404.991 663.691C203.933 760.21 -98.3717 785.791 -210.614 623.197" stroke="white" stroke-width="2.40658" stroke-miterlimit="10"/>
<path d="M1545.48 -388.838C1471.94 196.894 1345.76 381.973 1227.23 420.87C1140.84 449.232 1074.46 393.031 985.527 365.502C939.076 350.539 890.02 345.42 841.486 350.471C684.414 367.062 632.164 478.003 494.485 580.413C459.686 606.489 422.59 629.351 383.655 648.717C182.988 748.407 -109.121 789.187 -222.51 635.383" stroke="white" stroke-width="2.40658" stroke-miterlimit="10"/>
<path d="M1522.47 -404.583C1449.38 172.66 1324.83 361.399 1206.66 405.405C1121.44 437.192 1054.81 385.661 967.061 361.429C920.384 347.928 871.582 343.348 823.211 347.927C667.758 362.992 611.755 464.63 472.513 565.516C437.521 591.033 400.617 613.817 362.127 633.667C161.818 736.543 -120.11 792.49 -234.678 647.49" stroke="white" stroke-width="2.40658" stroke-miterlimit="10"/>
<path d="M1499.63 -420.32C1426.86 148.411 1305.19 344.078 1186.11 389.972C1101.16 422.824 1035.25 378.522 948.652 357.294C901.786 345.298 853.241 341.257 805.04 345.34C651.205 358.879 591.516 451.186 450.928 550.414C415.753 575.472 379 598.237 340.897 618.568C141.003 724.763 -130.787 795.776 -246.514 659.533" stroke="white" stroke-width="2.40658" stroke-miterlimit="10"/>
<path d="M1476.49 -435.926C1404.29 124.145 1282.87 320.02 1165.67 374.693C1082.71 412.889 1015.55 371.216 930.192 353.142C883.181 342.644 834.882 339.132 786.85 342.721C634.634 354.734 571.174 437.786 429.206 535.371C393.827 559.93 357.211 582.657 319.502 603.463C119.965 712.844 -141.586 799.156 -258.502 671.602" stroke="white" stroke-width="2.40658" stroke-miterlimit="10"/>
<path d="M1453.51 -451.605C1381.83 99.8691 1262 299.498 1145.03 359.063C1063.36 400.787 995.901 364.235 911.76 349.055C864.644 340.067 816.578 337.103 768.718 340.234C618.139 350.673 550.879 424.404 407.542 520.46C374.172 542.768 338.238 565.872 298.178 588.522C99.0094 701.202 -152.428 802.434 -270.461 683.737" stroke="white" stroke-width="2.40658" stroke-miterlimit="10"/>
<path d="M1430.53 -467.284C1359.2 75.6301 1240.97 278.612 1124.54 343.682C1044 388.651 976.209 357.234 893.278 345.029C846.061 337.565 798.189 335.116 750.459 337.723C601.499 346.636 530.548 411.116 385.737 505.491C352.029 527.474 316.166 550.469 276.681 573.538C78.1632 689.356 -163.254 805.745 -282.419 695.871" stroke="white" stroke-width="2.40658" stroke-miterlimit="10"/>
<path d="M1407.54 -482.916C1336.64 51.396 1219.97 257.791 1103.94 328.15C1024.55 376.317 956.323 350.239 874.918 340.832C827.656 334.884 779.977 332.938 732.389 335.012C585.014 342.413 510.311 397.592 364.159 490.503C330.279 512.089 294.383 535.098 255.458 558.553C57.1667 677.889 -173.994 809.255 -294.319 708.137" stroke="white" stroke-width="2.40658" stroke-miterlimit="10"/>
<path d="M1384.56 -498.595C1314.12 27.1478 1198.95 236.905 1083.49 312.675C1005.23 364.006 936.727 343.276 856.525 336.65C809.246 332.265 761.738 330.844 714.282 332.396C568.558 338.257 490.118 384.166 342.448 475.298C308.202 496.492 272.42 519.491 234.074 543.285C36.2405 666.039 -184.792 812.358 -306.329 720.058" stroke="white" stroke-width="2.40658" stroke-miterlimit="10"/>
<path d="M1361.58 -514.274C1291.55 2.88071 1177.85 216.047 1062.87 297.272C985.703 351.749 916.913 336.447 838.047 332.544C792.718 330.315 746.423 328.307 696.042 329.838C551.951 334.206 469.743 370.78 320.676 460.315C286.145 481.122 250.443 504.125 212.576 528.301C15.201 654.474 -195.736 815.76 -318.401 732.202" stroke="white" stroke-width="2.40658" stroke-miterlimit="10"/>
<path d="M1338.6 -529.953C1268.94 -21.4851 1156.96 195.024 1042.34 281.793C966.269 339.448 897.126 329.685 819.601 328.424C773.851 327.674 727.687 326.239 677.867 327.252C535.351 329.994 449.482 357.384 298.968 445.305C264.137 465.691 228.483 488.713 191.276 513.233C-5.57951 642.874 -206.483 819.077 -330.308 744.275" stroke="white" stroke-width="2.40658" stroke-miterlimit="10"/>
<path d="M1315.69 -545.661C1246.46 -45.6341 1135.69 174.124 1021.8 266.313C946.793 327.048 877.354 322.955 801.141 324.27C754.966 325.08 708.95 324.171 659.81 324.574C518.923 325.905 429.324 343.864 277.233 430.227C242.098 450.274 206.557 473.286 169.881 498.126C-26.4589 631.318 -217.296 822.421 -342.281 756.376" stroke="white" stroke-width="2.40658" stroke-miterlimit="10"/>
<path d="M1292.63 -561.263C1223.9 -69.8672 1114.62 153.059 1001.25 250.882C927.279 314.744 857.592 316.339 782.742 320.17C736.157 322.572 690.195 322.15 641.516 322.079C502.314 321.854 408.911 330.573 255.54 415.25C218.736 436.07 183.022 458.76 148.539 483.232C-47.2914 619.78 -228.237 825.744 -354.24 768.511" stroke="white" stroke-width="2.40658" stroke-miterlimit="10"/>
<path d="M1269.65 -576.943C1201.33 -94.1354 1093.34 132.205 980.83 235.392C907.886 302.347 837.946 309.712 764.266 316.062C717.284 320.091 671.442 320.128 623.344 319.491C485.727 317.754 388.605 317.156 233.902 400.209C196.915 420.513 161.273 443.178 127.199 468.063C-68.0347 608.44 -238.948 829.044 -366.186 780.758" stroke="white" stroke-width="2.40658" stroke-miterlimit="10"/>
<path d="M1246.67 -592.622C1178.81 -118.384 1071.95 111.122 960.178 220.003C888.296 289.957 818.128 303.238 745.868 311.961C698.504 317.648 652.74 318.045 605.203 316.889C469.237 313.613 368.344 303.759 212.129 385.227C174.979 405.057 139.419 427.733 105.767 453.05C-88.8474 596.854 -249.775 832.356 -378.216 792.726" stroke="white" stroke-width="2.40658" stroke-miterlimit="10"/>
<path d="M1223.66 -608.286C1156.18 -142.782 1050.87 90.0231 939.642 204.524C868.686 277.615 798.436 296.788 727.454 307.827C679.604 315.297 634.016 316.01 587.027 314.303C452.708 309.567 348.067 290.33 190.406 370.183C153.107 389.559 117.624 412.249 84.385 437.977C-109.605 585.402 -260.589 835.701 -390.19 804.828" stroke="white" stroke-width="2.40658" stroke-miterlimit="10"/>
<path d="M1200.68 -623.966C1133.85 -166.956 1029.56 68.9431 919.035 188.959C849.042 265.092 778.739 290.223 708.925 303.507C660.778 312.56 615.131 313.771 568.769 311.517C436.04 305.188 327.676 276.716 168.646 355.039C131.198 373.96 95.786 396.666 62.965 422.804C-130.386 573.882 -271.664 838.885 -402.217 816.796" stroke="white" stroke-width="2.40658" stroke-miterlimit="10"/>
<path d="M1177.71 -639.645C1111.15 -191.166 1008.22 47.8776 898.558 173.611C829.477 252.848 759.182 283.989 690.566 299.585C642.151 310.562 596.514 311.886 550.652 309.062C419.574 301.193 307.472 263.451 146.967 340.094C109.364 358.542 74.0168 381.27 41.6277 407.829C-151.008 562.646 -282.225 842.356 -414.133 829.029" stroke="white" stroke-width="2.40658" stroke-miterlimit="10"/>
<path d="M1154.71 -655.276C1088.59 -215.399 986.806 26.6478 878.137 158.123C809.971 240.382 739.746 277.585 672.284 295.394C623.589 308.261 577.923 309.794 532.684 306.504C403.178 297.09 287.324 250.046 125.421 325.093C87.6714 343.104 52.3756 365.861 20.3888 392.812C-171.252 551.562 -292.921 845.611 -426.027 841.135" stroke="white" stroke-width="2.40658" stroke-miterlimit="10"/>
<path d="M1131.76 -670.971C1025.2 29.0089 826.689 239.236 653.709 291.329C464.879 348.201 324.037 211.039 103.57 310.104C-155.041 426.351 -281.114 848.281 -438.063 853.263" stroke="white" stroke-width="2.40658" stroke-miterlimit="10"/>
</g>
</g>
<defs>
<linearGradient id="paint0_linear_642_21346" x1="720" y1="425.792" x2="720" y2="1100" gradientUnits="userSpaceOnUse">
<stop/>
<stop offset="1" stop-opacity="0.8"/>
</linearGradient>
<clipPath id="clip0_642_21346">
<rect width="1440" height="1100" fill="white"/>
</clipPath>
</defs>
</svg>
